<svg viewBox="0 0 1284 233.23" xmlns="http://www.w3.org/2000/svg" xmlns:xlink="http://www.w3.org/1999/xlink"><linearGradient id="a" gradientUnits="userSpaceOnUse" x1=".57" x2="1284" y1="117.98" y2="117.98"><stop offset="0" stop-color="#004ecf"/><stop offset="1" stop-color="#009bff"/></linearGradient><linearGradient id="b" gradientUnits="userSpaceOnUse" x2="1284" y1="121.58" y2="121.58"><stop offset="0" stop-color="#009bff"/><stop offset="1" stop-color="#004ecf"/></linearGradient><linearGradient id="c" x1="621.59" x2="1212.17" xlink:href="#b" y1="20.36" y2="20.36"/><linearGradient id="d" x1="1" x2="78.12" xlink:href="#b" y1="16.57" y2="16.57"/><linearGradient id="e" x2=".57" xlink:href="#b" y1="175.35" y2="175.35"/><path d="m.57 30s217.12-55.58 610.43-8.07 673-10.11 673-10.11v221.41h-1283.43z" fill="url(#a)" opacity=".84"/><path d="m0 54.29s161.42-51.06 610.45-43c0 0 192.65 0 278.52-1 83-1 395 38.92 395 38.92v183.5c0 .49-1284-.51-1284 0z" fill="url(#b)" opacity=".63"/><path d="m1212.17 23.09c-102.75-17.21-306.83-39.58-554-4.69q-18.39 2.6-36.58 4.79c269.7 31.46 484.67 13.66 590.58-.1z" fill="url(#c)" opacity=".47"/><path d="m78.12 16.46c-49-7.09-77-13.23-77-13.23l-.12 26.68c3.6-.91 29.76-7.16 77.12-13.45z" fill="url(#d)" opacity=".47"/><path d="m.57 117.97-.57 114.76h.57z" fill="url(#e)" opacity=".47"/></svg>