<?xml version="1.0" encoding="utf-8"?>
<!-- Generator: Adobe Illustrator 23.0.1, SVG Export Plug-In . SVG Version: 6.00 Build 0)  -->
<!DOCTYPE svg PUBLIC "-//W3C//DTD SVG 1.1//EN" "http://www.w3.org/Graphics/SVG/1.1/DTD/svg11.dtd" [
	<!ENTITY ns_extend "http://ns.adobe.com/Extensibility/1.0/">
	<!ENTITY ns_ai "http://ns.adobe.com/AdobeIllustrator/10.0/">
	<!ENTITY ns_graphs "http://ns.adobe.com/Graphs/1.0/">
	<!ENTITY ns_vars "http://ns.adobe.com/Variables/1.0/">
	<!ENTITY ns_imrep "http://ns.adobe.com/ImageReplacement/1.0/">
	<!ENTITY ns_sfw "http://ns.adobe.com/SaveForWeb/1.0/">
	<!ENTITY ns_custom "http://ns.adobe.com/GenericCustomNamespace/1.0/">
	<!ENTITY ns_adobe_xpath "http://ns.adobe.com/XPath/1.0/">
]>
<svg version="1.1" id="Layer_1" xmlns:x="&ns_extend;" xmlns:i="&ns_ai;" xmlns:graph="&ns_graphs;"
	 xmlns="http://www.w3.org/2000/svg" xmlns:xlink="http://www.w3.org/1999/xlink" x="0px" y="0px" viewBox="0 0 501 439"
	 style="enable-background:new 0 0 501 439;" xml:space="preserve">
<style type="text/css">
	.st0{fill:url(#SVGID_1_);}
	.st1{fill:#C0E0F9;}
	.st2{fill:url(#SVGID_2_);}
	.st3{fill:url(#SVGID_3_);}
	.st4{fill:#E1E7FF;}
	.st5{opacity:0.29;fill:#FFFFFF;}
	.st6{fill:url(#SVGID_4_);}
	.st7{fill:#134261;}
	.st8{fill:#2D2A6F;}
	.st9{fill:#C0E2EE;}
	.st10{fill:#282851;}
	.st11{fill:#393762;}
	.st12{fill:#F4C310;}
	.st13{fill:#DDA800;}
	.st14{fill:#49478A;}
	.st15{fill:#FFFFFF;}
	.st16{fill:#9A9FB3;}
	.st17{fill:#45CE52;}
	.st18{fill:#F9D523;}
	.st19{fill:#FF4553;}
	.st20{fill:url(#SVGID_5_);}
	.st21{clip-path:url(#SVGID_7_);}
	.st22{fill:url(#SVGID_8_);}
	.st23{clip-path:url(#SVGID_10_);}
	.st24{fill:url(#SVGID_11_);}
	.st25{clip-path:url(#SVGID_13_);}
</style>
<metadata>
	<sfw  xmlns="&ns_sfw;">
		<slices></slices>
		<sliceSourceBounds  bottomLeftOrigin="true" height="437.43" width="501.48" x="431.76" y="-650.21"></sliceSourceBounds>
	</sfw>
</metadata>
<g>
	
		<linearGradient id="SVGID_1_" gradientUnits="userSpaceOnUse" x1="479.2836" y1="219.5" x2="945.174" y2="219.5" gradientTransform="matrix(-1 0 0 1 980.5224 0)">
		<stop  offset="0" style="stop-color:#00D2FF"/>
		<stop  offset="1" style="stop-color:#476BE6"/>
	</linearGradient>
	<path class="st0" d="M62.05,349.77C3,254.96,51.31,134.67,115.54,72.71c57.29-55.26,157.84-93.65,213.28-58.29
		c40.51,25.83,30.41,74.1,91.9,122.76c39.96,31.63,59.68,23.46,72.69,45.95c31.09,53.72-33.6,182.79-138.53,231.11
		C267.18,454.62,124.96,450.76,62.05,349.77z"/>
	<g>
		<g>
			<g>
				<path class="st1" d="M400.53,51.34c-0.24,0-0.49,0.09-0.68,0.28l-5.9,5.9c-0.37,0.37-0.37,0.98,0,1.35
					c0.37,0.37,0.98,0.37,1.35,0l5.9-5.9c0.37-0.37,0.37-0.98,0-1.35C401.01,51.43,400.77,51.34,400.53,51.34z"/>
			</g>
			<g>
				<path class="st1" d="M394.63,51.34c-0.24,0-0.49,0.09-0.68,0.28c-0.37,0.37-0.37,0.98,0,1.35l5.9,5.9
					c0.37,0.37,0.98,0.37,1.35,0c0.37-0.37,0.37-0.98,0-1.35l-5.9-5.9C395.12,51.43,394.87,51.34,394.63,51.34z"/>
			</g>
		</g>
		<path class="st1" d="M392.03,67.69c0-1.31-1.06-2.36-2.36-2.36c-1.31,0-2.36,1.06-2.36,2.36s1.06,2.36,2.36,2.36
			C390.97,70.05,392.03,68.99,392.03,67.69z"/>
		<path class="st1" d="M386.3,55.27c0-1.31-1.06-2.36-2.36-2.36c-1.31,0-2.36,1.06-2.36,2.36c0,1.31,1.06,2.36,2.36,2.36
			C385.24,57.64,386.3,56.58,386.3,55.27z"/>
	</g>
	<g>
		
			<linearGradient id="SVGID_2_" gradientUnits="userSpaceOnUse" x1="-717.1682" y1="240.4254" x2="-145.9319" y2="170.0439" gradientTransform="matrix(1 0 0 1 723.1764 0)">
			<stop  offset="0" style="stop-color:#CCCCCC"/>
			<stop  offset="1" style="stop-color:#FFFFFF"/>
		</linearGradient>
		<path class="st2" d="M26.5,102.6v240.38h409.98V102.6c0-12.67-10.27-22.93-22.93-22.93H49.43C36.77,79.66,26.5,89.93,26.5,102.6z"
			/>
		
			<linearGradient id="SVGID_3_" gradientUnits="userSpaceOnUse" x1="-502.8518" y1="98.2372" x2="-494.746" y2="258.7302" gradientTransform="matrix(1 0 0 1 723.1764 0)">
			<stop  offset="0" style="stop-color:#49B7E0"/>
			<stop  offset="1" style="stop-color:#66ECF2"/>
		</linearGradient>
		<rect x="45.12" y="102.67" class="st3" width="363.47" height="249.61"/>
		<g>
			<g>
				
					<ellipse transform="matrix(0.7071 -0.7071 0.7071 0.7071 -94.3575 216.2001)" class="st4" cx="213.8" cy="222" rx="91.08" ry="91.08"/>
			</g>
			<g>
				<path class="st4" d="M214.2,149.29h58.17c4.92,0,8.91-3.99,8.91-8.91l0,0c0-4.92-3.99-8.91-8.91-8.91H214.2
					c-4.92,0-8.91,3.99-8.91,8.91l0,0C205.3,145.31,209.29,149.29,214.2,149.29z"/>
			</g>
			<g>
				<path class="st4" d="M286.94,274.71h-37.38c-3.85,0-6.98,3.12-6.98,6.98l0,0c0,3.85,3.12,6.98,6.98,6.98h37.38
					c3.85,0,6.98-3.12,6.98-6.98l0,0C293.92,277.83,290.79,274.71,286.94,274.71z"/>
			</g>
			<g>
				<path class="st4" d="M294.43,302.22h-55.39c-2.5,0-4.52,2.03-4.52,4.52l0,0c0,2.5,2.02,4.52,4.52,4.52h55.39
					c2.5,0,4.52-2.02,4.52-4.52l0,0C298.95,304.25,296.93,302.22,294.43,302.22z"/>
			</g>
			<g>
				<path class="st4" d="M175.28,311.26h-12.12c-1.49,0-2.69,1.2-2.69,2.69v3.66c0,1.49,1.2,2.69,2.69,2.69h12.12
					c1.49,0,2.69-1.2,2.69-2.69v-3.66C177.97,312.47,176.77,311.26,175.28,311.26z"/>
			</g>
			<g>
				<path class="st4" d="M222.9,284.51h-89.42c-2.44,0-4.41,1.98-4.41,4.41v6.01c0,2.44,1.98,4.41,4.41,4.41h89.42
					c2.44,0,4.41-1.98,4.41-4.41v-6.01C227.32,286.49,225.34,284.51,222.9,284.51z"/>
			</g>
			<g>
				<path class="st4" d="M278.98,288.56h-26.04c1.92,0,3.67,0.83,4.93,2.09c1.27,1.27,2.05,2.76,2.05,4.69
					c0,3.85-3.13,6.73-6.98,6.73h26.04c-1.92,0-3.67-0.51-4.93-1.77c-1.26-1.26-2.04-2.92-2.04-4.85
					C272.01,291.6,275.13,288.56,278.98,288.56z"/>
			</g>
			<g>
				<path class="st4" d="M172.15,208.89h-67.14c-6.92,0-12.53,5.61-12.53,12.53l0,0c0,6.92,5.61,12.53,12.53,12.53h67.14
					c6.92,0,12.53-5.61,12.53-12.53l0,0C184.69,214.5,179.07,208.89,172.15,208.89z"/>
			</g>
			<g>
				<path class="st4" d="M200.79,258.3H101.3c-4.49,0-8.12,3.64-8.12,8.12l0,0c0,4.49,3.64,8.12,8.12,8.12h99.49
					c4.49,0,8.12-3.64,8.12-8.12l0,0C208.91,261.94,205.28,258.3,200.79,258.3z"/>
			</g>
			<g>
				<path class="st4" d="M157.07,234.04h-46.78c3.46,0,6.6,1.36,8.86,3.62c2.27,2.27,3.68,4.95,3.68,8.42
					c0,6.92-5.62,12.07-12.54,12.07h46.78c-3.46,0-6.59-0.98-8.86-3.23c-2.26-2.26-3.67-5.14-3.67-8.61
					C144.54,239.38,150.15,234.04,157.07,234.04z"/>
			</g>
			<g>
				<path class="st4" d="M233,197.99h78.68c7.35,0,13.31-5.96,13.31-13.31l0,0c0-7.35-5.96-13.31-13.31-13.31H233
					c-7.35,0-13.31,5.96-13.31,13.31l0,0C219.69,192.03,225.65,197.99,233,197.99z"/>
			</g>
			<g>
				<path class="st4" d="M200.23,273h113.7c10.62,0,19.23-8.61,19.23-19.23l0,0c0-10.62-8.61-19.23-19.23-19.23h-113.7
					c-10.62,0-19.23,8.61-19.23,19.23l0,0C181,264.39,189.61,273,200.23,273z"/>
			</g>
			<g>
				<path class="st4" d="M135.9,167.66h62.77c5.86,0,10.62-4.75,10.62-10.62l0,0c0-5.86-4.75-10.62-10.62-10.62H135.9
					c-5.86,0-10.62,4.75-10.62,10.62l0,0C125.28,162.9,130.03,167.66,135.9,167.66z"/>
			</g>
			<g>
				<path class="st4" d="M155.2,130.92h14.91c3.19,0,5.78-2.59,5.78-5.78l0,0c0-3.19-2.59-5.78-5.78-5.78H155.2
					c-3.19,0-5.78,2.59-5.78,5.78l0,0C149.43,128.33,152.01,130.92,155.2,130.92z"/>
			</g>
		</g>
		<polygon class="st5" points="46.84,340.61 278.29,102.81 332.39,102.81 103.79,340.61 		"/>
		<polygon class="st5" points="127.41,340.61 353.73,102.81 372.78,102.81 147.12,340.61 		"/>
		
			<linearGradient id="SVGID_4_" gradientUnits="userSpaceOnUse" x1="-488.5995" y1="296.1444" x2="-496.4799" y2="410.9734" gradientTransform="matrix(1 0 0 1 723.1764 0)">
			<stop  offset="0" style="stop-color:#CCCCCC"/>
			<stop  offset="1" style="stop-color:#FFFFFF"/>
		</linearGradient>
		<path class="st6" d="M-0.24,340.87h463.45l0,0c0,12.61-14.39,22.83-32.14,22.83H31.9c-14.85,0-27.35-7.16-31.03-16.88
			C0.14,344.92-0.24,342.92-0.24,340.87L-0.24,340.87z"/>
		<path class="st7" d="M171.8,340.87L171.8,340.87c0,3.07,2.47,5.58,5.54,5.63l108.11,1.72c3.37,0.05,6.04-2.85,5.69-6.2l-0.12-1.15
			H171.8z"/>
	</g>
	<polygon class="st8" points="238.4,209.03 229.41,187.48 252.65,189.74 249.19,194.42 258.09,206.08 252.67,210.3 241.86,204.35 	
		"/>
	<g>
		<path class="st9" d="M325.08,266.83c0,0-4.46,30.01-11.3,36.93l9.08,4.11c0,0,26.22-17.79,21.54-20.6S325.08,266.83,325.08,266.83
			z"/>
		<g>
			<g>
				<path class="st9" d="M288.29,321.93c0.51-1.13,1.53-1.95,2.74-2.21c0.06-0.01,0.13-0.03,0.19-0.04
					c7.52-1.71,10.89-4.65,12.75-5.52c0.7-0.33,1.35-0.63,1.99-0.92c0.64,1.86,1.27,3.72,1.91,5.57
					c-4.71,3.22-11.54,9.27-14.36,11.08c-3.67,2.38-4.33,2.21-4.33,2.21c-0.29-1.41,2.87-3.77,4.38-5.28
					c1.34-0.9,2.88-2.18,2.94-2.35c0.26-0.81-2.61,0.19-4.29,1.88c-1.94,1.3-4.38,6.46-4.61,6.92c-0.49,0.94-4.39,4.28-5.09,4.48
					C281.47,338.65,286.04,326.92,288.29,321.93z"/>
				<g>
					<path class="st9" d="M299.88,316.6c5.46-4.4,14.75-12.88,17.51-17.33c14.9-24.1,17.78-24.57,13.08-39.85
						c-1.82-7.75-1.94-20.89,6.4-8.73c6.96,11.93,3.24,33.93,3.21,34.1c-4.28,21.7-17.86,25.85-35.43,36.22
						C302.91,318.04,299.44,316.95,299.88,316.6z"/>
				</g>
			</g>
			<path class="st10" d="M254.52,421.47c5.54,3.4,25.46-1.02,26.46,0.69c0.67,1.13,6.07-0.67,5.45-2.82
				c-1.59-5.52-4.8-13.32-5.5-16.14l-5.01,5.64c-0.04,0.01-4.02,0.65-4.06,0.66c-2.23,3.97-6.36,5.63-9.48,7.49
				c-3.08,1.84-4.52,2.21-8.01,4.41"/>
			<path class="st11" d="M279.1,423.3c5.54,3.4,25.46-1.02,26.46,0.69c0.67,1.13,6.07-0.67,5.45-2.82
				c-1.59-5.52-4.8-13.32-5.5-16.14l-5.01,5.64c-0.04,0.01-4.02,0.65-4.06,0.66c-2.23,3.97-6.36,5.63-9.48,7.49
				c-3.08,1.84-4.52,2.21-8.01,4.41"/>
			<path class="st10" d="M320.24,310.8c-1.33,4.32-47.29,24.88-50.97,29.83c-3.68,4.95,1.61,69.49,1.61,69.49s2.68,1.91,7.26,1.7
				c4.58-0.21,5.69-1.34,5.69-1.34s2.06-58.43,6.49-62.83c4.43-4.4,50.36-11.7,55.51-19.44c5.14-7.74-1.05-17.42-1.05-17.42H320.24z
				"/>
			<path class="st11" d="M339.1,308.23l-5.76,8.55c0,0-39.88,15.19-47.13,25.7c-4.77,6.92,10.16,71.05,10.16,71.05
				s1.43,1.19,3.69,1.2c4.93,0.01,8.3-1.17,8.3-1.17s-3.2-54.28-0.44-58.18c2.77-3.9,55.81-10.6,58.61-23.65
				c1.77-8.24,0.22-17.91-0.71-22.36L339.1,308.23z"/>
			<g>
				<g>
					<path class="st8" d="M360.86,207.26c0,0,6.25-2.81,11.62-12.47c5.38-9.66,10.4-16.94,3.05-24.99c-3.2-3.5-9.26-3.66-14.82-5.31
						c-7.21-2.14-14.11-4.17-18.46,7.45C334.55,192.51,360.86,207.26,360.86,207.26z"/>
					<path class="st9" d="M339.22,177.09c0,0-9.28,25.93-5.79,31.04c3.49,5.1,12.76,2.95,13.88,7.63
						c1.12,4.68,10.18,14.01,13.21,7.33c3.03-6.69,0.9-12.72,3.09-18.45c0,0,6.5-1.59,6.95-7.95c0.45-6.36-7.34-4.61-9.01-2.68
						c-1.67,1.93-3.12,0.8-2.54-0.18c0.58-0.98,5.1-7.05,5.73-15.96C365.36,168.97,347.16,158.73,339.22,177.09z"/>
					<path class="st8" d="M335.49,202.12c0.45,1.11,1.29,2.14,2.34,2.71c2.46,1.35,5.11-0.17,7.03-1.76
						c0.65-0.54-0.05-1.67-0.71-1.13c-1.57,1.3-3.88,2.92-5.9,1.58c-0.63-0.42-1.22-1.18-1.48-1.81
						C336.44,200.93,335.16,201.33,335.49,202.12L335.49,202.12z"/>
					<path class="st8" d="M340.65,174.26c0,0-11-14.9,3.62-23.17l0,0c0,0,6.41,9.34,23.02,12.15c14.34,2.43,4.15,21.02,4.15,21.02
						l-6.71-6.38C364.73,177.87,351.86,184.84,340.65,174.26z"/>
					<path class="st8" d="M346.89,180.23l7.38,1.98c1.07,0.24,1.85,0.86,1.73,1.37l0.07-0.31c-0.12,0.52-1.08,0.74-2.15,0.5
						l-7.52-1.36c-1.07-0.24-1.85-0.86-1.73-1.37l0.07-0.31C344.86,180.21,345.83,179.99,346.89,180.23z"/>
					
						<ellipse transform="matrix(0.2187 -0.9758 0.9758 0.2187 89.6233 486.623)" class="st8" cx="348.68" cy="187.35" rx="2.16" ry="1.33"/>
					<path class="st8" d="M346.41,188.37c0,0,0.21,2.09,1.36,3.03"/>
					<path class="st8" d="M337.69,194.23c-0.02,0.63-0.04,1.2-0.07,1.76c-0.07,1.69,0.54,2.3,1.96,2.29c0.52,0,0.76-0.31,0.89-0.64
						c0.13-0.35-0.19-0.67-0.49-0.84c-0.25-0.14-0.64-0.01-0.61-0.53c0.02-0.3-0.04-0.58,0.05-0.91c0.2-0.73,0.38-1.48,0.41-2.22
						c0.06-1.36,0.47-2.66,0.58-4c0.05-0.58,0.44-1.08,0.45-1.61c0.02-0.81,0.19-1.58,0.38-2.34c0.14-0.58,0.1-1.13-0.04-1.68
						c-0.11-0.43-0.45-0.51-0.76-0.17c-0.34,0.38-0.49,0.87-0.64,1.36c-0.38,1.28-0.41,2.66-1.07,3.87
						c-0.12,0.22-0.14,0.48-0.21,0.72c-0.23,0.8-0.22,1.65-0.4,2.43C337.92,192.58,338.17,193.5,337.69,194.23z"/>
				</g>
				<path class="st9" d="M274.87,218.17c0,0-9.76-15.82-25.23-20.44c-0.56-0.17-1,0.5-0.62,0.95l5.29,6.37c0,0-3.08,8.1,0.81,12.15
					c3.89,4.05,10.2,4.37,10.2,4.37l4.37,4.86L274.87,218.17z"/>
				<path class="st12" d="M328.03,248.51c2.33-11.75,12.23-26.14,12.23-26.14l10.72-2.82c7.65-1.16,12.48-1.86,12.48-1.86
					c12.14,18.86,5.75,61.43,5.08,69.05c-0.67,7.61,3.39,23.83-4.26,26.64c-6.2,2.28-29.64,1.3-40.62-1.35
					c-3.04-0.74-5.01-3.86-4.5-7.13l8.78-56.54"/>
				<polygon class="st8" points="366.1,217.69 341.52,222.37 340.16,216.13 366.19,217.92 				"/>
				<path class="st13" d="M332.69,256.24l-4.22-1.93c-6.73-9.02-1.22-21.91-1.13-22.89l0.03-0.06c12.82-4.57,26.67-6.88,29.55,2.91
					c4.58,15.53-9.23,20.11-24.49,22.03L332.69,256.24z"/>
				<path class="st9" d="M273.9,216.43l28.73,23.68c0,0,8.84-3.18,20.06-7.45c-0.47,15.33,5.96,21.91,5.96,21.91l0.02,0l0,0
					c-8.18,0.87-16.57,1.15-22.72,2.09c-5.87,0.9-11.78-1.27-15.69-5.73l-23.33-27.71C269.38,218.49,273.9,216.43,273.9,216.43z"/>
				<path class="st12" d="M331.37,254.26l0.07-0.01c-6.73-9.02-5.5-23.83-5.41-24.81l0.03-0.06c12.82-4.57,26.67-6.88,29.55,2.91
					C360.18,247.81,346.63,252.33,331.37,254.26L331.37,254.26z"/>
				<path class="st8" d="M326.03,229.38c0,0-1.56,15.54,5.41,24.87l-2.78,0.32c0,0-6.44-8.58-5.96-23.94L326.03,229.38z"/>
			</g>
			<g>
				<path class="st14" d="M343.31,324.24c0.06-0.07,0.1-0.15,0.11-0.25c0.02-0.22-0.15-0.42-0.37-0.44
					c-1.92-0.17-3.8-1.16-5.02-2.65c-1.22-1.49-1.82-3.53-1.61-5.44c0.02-0.22-0.14-0.42-0.36-0.45c-0.22-0.03-0.42,0.13-0.45,0.36
					c-0.24,2.16,0.41,4.37,1.79,6.05c1.38,1.68,3.41,2.76,5.58,2.94C343.11,324.37,343.23,324.33,343.31,324.24z"/>
			</g>
		</g>
	</g>
	<g>
		<path class="st15" d="M75.47,185.3h125.91c6.6,0,12-5.4,12-12v-25.53c0-6.6-5.4-12-12-12H75.47c-6.6,0-12,5.4-12,12v25.53
			C63.47,179.9,68.87,185.3,75.47,185.3z"/>
		<g>
			<polygon class="st16" points="158.06,152.92 77.07,153.04 77.15,152.11 158.15,151.99 			"/>
			<polygon class="st16" points="157.73,156.75 76.74,156.87 76.82,155.94 157.81,155.82 			"/>
			<polygon class="st16" points="157.4,160.58 76.41,160.7 76.49,159.77 157.48,159.65 			"/>
			<polygon class="st16" points="157.07,164.42 76.07,164.54 76.16,163.6 157.15,163.48 			"/>
			<polygon class="st16" points="156.73,168.25 75.74,168.37 75.82,167.43 156.81,167.32 			"/>
			<polygon class="st16" points="155.98,176.94 129.08,176.98 129.16,176.05 156.06,176.01 			"/>
		</g>
		<g>
			<path class="st17" d="M76.11,140.76c-0.02,0.78-0.63,1.42-1.37,1.43c-0.74,0-1.32-0.63-1.31-1.41c0.02-0.78,0.63-1.42,1.37-1.43
				C75.54,139.35,76.12,139.98,76.11,140.76z"/>
			<path class="st18" d="M82.08,140.73c-0.02,0.78-0.63,1.42-1.37,1.43c-0.74,0-1.32-0.63-1.31-1.41c0.02-0.78,0.63-1.42,1.37-1.43
				C81.51,139.31,82.1,139.95,82.08,140.73z"/>
			<path class="st19" d="M88.05,140.7c-0.02,0.78-0.63,1.42-1.37,1.43c-0.74,0-1.32-0.63-1.31-1.41c0.02-0.78,0.63-1.42,1.37-1.43
				C87.48,139.28,88.07,139.91,88.05,140.7z"/>
		</g>
		<g>
			
				<linearGradient id="SVGID_5_" gradientUnits="userSpaceOnUse" x1="776.1547" y1="172.6529" x2="797.8036" y2="151.004" gradientTransform="matrix(-0.9702 5.582424e-03 0.1595 1.0298 924.4211 -10.4969)">
				<stop  offset="0" style="stop-color:#36078B"/>
				<stop  offset="0.1793" style="stop-color:#2F2FA6"/>
				<stop  offset="0.4572" style="stop-color:#2466CC"/>
				<stop  offset="0.6967" style="stop-color:#1C8FE8"/>
				<stop  offset="0.8854" style="stop-color:#18A8F9"/>
				<stop  offset="1" style="stop-color:#16B1FF"/>
			</linearGradient>
			<path class="st20" d="M203.03,160.46c-0.21,9.57-7.68,17.37-16.69,17.42c-9,0.05-16.13-7.66-15.92-17.23
				c0.21-9.57,7.68-17.37,16.69-17.42C196.12,143.18,203.24,150.89,203.03,160.46z"/>
			<g>
				<defs>
					
						<ellipse id="SVGID_6_" transform="matrix(0.2216 -0.9751 0.9751 0.2216 -11.2078 307.0661)" cx="186.73" cy="160.55" rx="17.38" ry="16.25"/>
				</defs>
				<clipPath id="SVGID_7_">
					<use xlink:href="#SVGID_6_"  style="overflow:visible;"/>
				</clipPath>
				<g class="st21">
					<path class="st15" d="M192.38,156.61c-0.07,3.27-2.62,5.93-5.7,5.95c-3.07,0.02-5.51-2.62-5.43-5.88
						c0.07-3.27,2.62-5.93,5.7-5.95C190.02,150.71,192.45,153.34,192.38,156.61z"/>
					<path class="st15" d="M199.25,177.8c-0.17,7.57-6.08,13.75-13.21,13.79c-7.13,0.04-12.77-6.07-12.6-13.64
						c0.17-7.57,6.08-13.75,13.21-13.79C193.78,164.12,199.42,170.23,199.25,177.8z"/>
				</g>
			</g>
		</g>
		<path class="st15" d="M75.47,242.72h125.91c6.6,0,12-5.4,12-12v-25.53c0-6.6-5.4-12-12-12H75.47c-6.6,0-12,5.4-12,12v25.53
			C63.47,237.32,68.87,242.72,75.47,242.72z"/>
		<g>
			<polygon class="st16" points="158.06,210.34 77.07,210.46 77.15,209.53 158.15,209.41 			"/>
			<polygon class="st16" points="157.73,214.17 76.74,214.29 76.82,213.36 157.81,213.24 			"/>
			<polygon class="st16" points="157.4,218 76.41,218.12 76.49,217.19 157.48,217.07 			"/>
			<polygon class="st16" points="157.07,221.84 76.07,221.96 76.16,221.02 157.15,220.9 			"/>
			<polygon class="st16" points="156.73,225.67 75.74,225.79 75.82,224.85 156.81,224.74 			"/>
			<polygon class="st16" points="155.98,234.36 129.08,234.4 129.16,233.47 156.06,233.43 			"/>
		</g>
		<g>
			<path class="st17" d="M76.11,199.12c-0.02,0.78-0.63,1.42-1.37,1.43c-0.74,0-1.32-0.63-1.31-1.41c0.02-0.78,0.63-1.42,1.37-1.43
				C75.54,197.7,76.12,198.34,76.11,199.12z"/>
			<path class="st18" d="M82.08,199.09c-0.02,0.78-0.63,1.42-1.37,1.43c-0.74,0-1.32-0.63-1.31-1.41c0.02-0.78,0.63-1.42,1.37-1.43
				C81.51,197.67,82.1,198.3,82.08,199.09z"/>
			<path class="st19" d="M88.05,199.05c-0.02,0.78-0.63,1.42-1.37,1.43c-0.74,0-1.32-0.63-1.31-1.41c0.02-0.78,0.63-1.42,1.37-1.43
				C87.48,197.64,88.07,198.27,88.05,199.05z"/>
		</g>
		<g>
			
				<linearGradient id="SVGID_8_" gradientUnits="userSpaceOnUse" x1="785.3107" y1="228.3597" x2="806.9597" y2="206.7108" gradientTransform="matrix(-0.9702 5.582424e-03 0.1595 1.0298 924.4211 -10.4969)">
				<stop  offset="0" style="stop-color:#36078B"/>
				<stop  offset="0.1793" style="stop-color:#2F2FA6"/>
				<stop  offset="0.4572" style="stop-color:#2466CC"/>
				<stop  offset="0.6967" style="stop-color:#1C8FE8"/>
				<stop  offset="0.8854" style="stop-color:#18A8F9"/>
				<stop  offset="1" style="stop-color:#16B1FF"/>
			</linearGradient>
			<path class="st22" d="M203.03,217.88c-0.21,9.57-7.68,17.37-16.69,17.42c-9,0.05-16.13-7.66-15.92-17.23
				c0.21-9.57,7.68-17.37,16.69-17.42C196.12,200.6,203.24,208.31,203.03,217.88z"/>
			<g>
				<defs>
					
						<ellipse id="SVGID_9_" transform="matrix(0.2216 -0.9751 0.9751 0.2216 -67.2007 351.7639)" cx="186.73" cy="217.97" rx="17.38" ry="16.25"/>
				</defs>
				<clipPath id="SVGID_10_">
					<use xlink:href="#SVGID_9_"  style="overflow:visible;"/>
				</clipPath>
				<g class="st23">
					<path class="st15" d="M192.38,214.03c-0.07,3.27-2.62,5.93-5.7,5.95c-3.07,0.02-5.51-2.62-5.43-5.88
						c0.07-3.27,2.62-5.93,5.7-5.95C190.02,208.13,192.45,210.76,192.38,214.03z"/>
					<path class="st15" d="M199.25,235.22c-0.17,7.57-6.08,13.75-13.21,13.79c-7.13,0.04-12.77-6.07-12.6-13.64
						c0.17-7.57,6.08-13.75,13.21-13.79C193.78,221.54,199.42,227.65,199.25,235.22z"/>
				</g>
			</g>
		</g>
		<path class="st15" d="M75.47,300.14h125.91c6.6,0,12-5.4,12-12v-25.53c0-6.6-5.4-12-12-12H75.47c-6.6,0-12,5.4-12,12v25.53
			C63.47,294.74,68.87,300.14,75.47,300.14z"/>
		<g>
			<polygon class="st16" points="158.06,267.76 77.07,267.88 77.15,266.95 158.15,266.83 			"/>
			<polygon class="st16" points="157.73,271.59 76.74,271.71 76.82,270.78 157.81,270.66 			"/>
			<polygon class="st16" points="157.4,275.42 76.41,275.54 76.49,274.61 157.48,274.49 			"/>
			<polygon class="st16" points="157.07,279.26 76.07,279.38 76.16,278.44 157.15,278.32 			"/>
			<polygon class="st16" points="156.73,283.09 75.74,283.21 75.82,282.27 156.81,282.16 			"/>
			<polygon class="st16" points="155.98,291.78 129.08,291.82 129.16,290.89 156.06,290.85 			"/>
		</g>
		<g>
			<path class="st17" d="M76.11,255.6c-0.02,0.78-0.63,1.42-1.37,1.43c-0.74,0-1.32-0.63-1.31-1.41c0.02-0.78,0.63-1.42,1.37-1.43
				C75.54,254.19,76.12,254.82,76.11,255.6z"/>
			<path class="st18" d="M82.08,255.57c-0.02,0.78-0.63,1.42-1.37,1.43c-0.74,0-1.32-0.63-1.31-1.41c0.02-0.78,0.63-1.42,1.37-1.43
				C81.51,254.15,82.1,254.79,82.08,255.57z"/>
			<path class="st19" d="M88.05,255.54c-0.02,0.78-0.63,1.42-1.37,1.43c-0.74,0-1.32-0.63-1.31-1.41c0.02-0.78,0.63-1.42,1.37-1.43
				C87.48,254.12,88.07,254.75,88.05,255.54z"/>
		</g>
		<g>
			
				<linearGradient id="SVGID_11_" gradientUnits="userSpaceOnUse" x1="794.4668" y1="284.0666" x2="816.1157" y2="262.4177" gradientTransform="matrix(-0.9702 5.582424e-03 0.1595 1.0298 924.4211 -10.4969)">
				<stop  offset="0" style="stop-color:#36078B"/>
				<stop  offset="0.1793" style="stop-color:#2F2FA6"/>
				<stop  offset="0.4572" style="stop-color:#2466CC"/>
				<stop  offset="0.6967" style="stop-color:#1C8FE8"/>
				<stop  offset="0.8854" style="stop-color:#18A8F9"/>
				<stop  offset="1" style="stop-color:#16B1FF"/>
			</linearGradient>
			<path class="st24" d="M203.03,275.3c-0.21,9.57-7.68,17.37-16.69,17.42c-9,0.05-16.13-7.66-15.92-17.23
				c0.21-9.57,7.68-17.37,16.69-17.42C196.12,258.02,203.24,265.73,203.03,275.3z"/>
			<g>
				<defs>
					
						<ellipse id="SVGID_12_" transform="matrix(0.2216 -0.9751 0.9751 0.2216 -123.1935 396.4616)" cx="186.73" cy="275.39" rx="17.38" ry="16.25"/>
				</defs>
				<clipPath id="SVGID_13_">
					<use xlink:href="#SVGID_12_"  style="overflow:visible;"/>
				</clipPath>
				<g class="st25">
					<path class="st15" d="M192.38,271.45c-0.07,3.27-2.62,5.93-5.7,5.95c-3.07,0.02-5.51-2.62-5.43-5.88
						c0.07-3.27,2.62-5.93,5.7-5.95C190.02,265.55,192.45,268.18,192.38,271.45z"/>
					<path class="st15" d="M199.25,292.64c-0.17,7.57-6.08,13.75-13.21,13.79c-7.13,0.04-12.77-6.07-12.6-13.64
						c0.17-7.57,6.08-13.75,13.21-13.79C193.78,278.96,199.42,285.07,199.25,292.64z"/>
				</g>
			</g>
		</g>
	</g>
	<g>
		<path class="st15" d="M240.44,56.73c-1.04,0-1.87-0.81-1.87-1.83v-9.91c0-1.01,0.84-1.83,1.87-1.83c1.04,0,1.87,0.82,1.87,1.83
			v9.91C242.32,55.92,241.48,56.73,240.44,56.73z"/>
		<path class="st15" d="M219.74,62.57c-0.48,0-0.96-0.17-1.32-0.53l-7.18-7.01c-0.73-0.71-0.73-1.87,0-2.58
			c0.73-0.71,1.92-0.71,2.65,0l7.18,7.01c0.73,0.71,0.73,1.87,0,2.58C220.7,62.4,220.22,62.57,219.74,62.57z"/>
		<path class="st15" d="M265.68,62.04c-0.36,0.36-0.84,0.53-1.32,0.53c-0.48,0-0.96-0.17-1.33-0.53c-0.73-0.71-0.73-1.87,0-2.58
			l7.18-7.01c0.73-0.71,1.92-0.71,2.65,0c0.74,0.72,0.74,1.88,0,2.58L265.68,62.04z"/>
	</g>
	<g>
		<path class="st15" d="M236.15,180.91c-0.28-0.17-0.36-0.54-0.18-0.82l1.73-2.77c0.18-0.28,0.54-0.37,0.82-0.2
			c0.28,0.17,0.35,0.54,0.18,0.82l-1.73,2.77C236.8,181,236.43,181.09,236.15,180.91z"/>
		<path class="st15" d="M224.41,185.15c-0.18,0.28-0.54,0.37-0.82,0.2l-2.7-1.69c-0.28-0.17-0.36-0.54-0.18-0.82
			c0.18-0.28,0.54-0.37,0.82-0.2l2.7,1.69C224.5,184.5,224.58,184.87,224.41,185.15z"/>
		<path class="st15" d="M224.33,199.72l1.73-2.77c0.18-0.28,0.54-0.37,0.82-0.2c0.27,0.17,0.35,0.54,0.18,0.82l-1.73,2.77
			c-0.18,0.28-0.54,0.37-0.82,0.2C224.23,200.37,224.15,200,224.33,199.72z"/>
		<path class="st15" d="M222.46,191.8c-0.08,0.13-0.21,0.23-0.37,0.27l-3.14,0.76c-0.32,0.08-0.63-0.12-0.7-0.44
			c-0.07-0.32,0.13-0.65,0.45-0.72l3.14-0.76c0.32-0.08,0.64,0.12,0.7,0.44C222.58,191.51,222.55,191.67,222.46,191.8z"/>
		<path class="st15" d="M230.16,179.18c0.04,0.16,0,0.32-0.08,0.45c-0.08,0.13-0.21,0.23-0.37,0.27c-0.32,0.08-0.63-0.12-0.7-0.44
			l-0.69-3.16c-0.07-0.32,0.13-0.64,0.45-0.72c0.32-0.08,0.64,0.12,0.7,0.44L230.16,179.18z"/>
	</g>
</g>
</svg>
