<?xml version="1.0" encoding="utf-8"?>
<!-- Generator: Adobe Illustrator 23.0.1, SVG Export Plug-In . SVG Version: 6.00 Build 0)  -->
<!DOCTYPE svg PUBLIC "-//W3C//DTD SVG 1.1//EN" "http://www.w3.org/Graphics/SVG/1.1/DTD/svg11.dtd" [
	<!ENTITY ns_extend "http://ns.adobe.com/Extensibility/1.0/">
	<!ENTITY ns_ai "http://ns.adobe.com/AdobeIllustrator/10.0/">
	<!ENTITY ns_graphs "http://ns.adobe.com/Graphs/1.0/">
	<!ENTITY ns_vars "http://ns.adobe.com/Variables/1.0/">
	<!ENTITY ns_imrep "http://ns.adobe.com/ImageReplacement/1.0/">
	<!ENTITY ns_sfw "http://ns.adobe.com/SaveForWeb/1.0/">
	<!ENTITY ns_custom "http://ns.adobe.com/GenericCustomNamespace/1.0/">
	<!ENTITY ns_adobe_xpath "http://ns.adobe.com/XPath/1.0/">
]>
<svg version="1.1" id="Layer_1" xmlns:x="&ns_extend;" xmlns:i="&ns_ai;" xmlns:graph="&ns_graphs;"
	 xmlns="http://www.w3.org/2000/svg" xmlns:xlink="http://www.w3.org/1999/xlink" x="0px" y="0px" viewBox="0 0 58 60"
	 style="enable-background:new 0 0 58 60;" xml:space="preserve">
<style type="text/css">
	.st0{opacity:0.91;}
	.st1{fill:url(#SVGID_1_);}
	.st2{fill:url(#SVGID_2_);}
	.st3{fill:url(#SVGID_3_);}
	.st4{fill:url(#SVGID_4_);}
	.st5{fill:url(#SVGID_5_);}
	.st6{fill:url(#SVGID_6_);}
	.st7{fill:url(#SVGID_7_);}
	.st8{fill:#FFFFFF;}
</style>
<metadata>
	<sfw  xmlns="&ns_sfw;">
		<slices></slices>
		<sliceSourceBounds  bottomLeftOrigin="true" height="59.29" width="56.05" x="654.97" y="-413.65"></sliceSourceBounds>
	</sfw>
</metadata>
<g>
	<g class="st0">
		
			<linearGradient id="SVGID_1_" gradientUnits="userSpaceOnUse" x1="101.7988" y1="-353.303" x2="158.8968" y2="-353.303" gradientTransform="matrix(0.7071 0.7071 -0.7071 0.7071 -313.2229 188.7095)">
			<stop  offset="0" style="stop-color:#0068FF"/>
			<stop  offset="0.6082" style="stop-color:#0066FF"/>
			<stop  offset="0.9662" style="stop-color:#005DFF"/>
			<stop  offset="1" style="stop-color:#005CFF"/>
		</linearGradient>
		<path class="st1" d="M11.86,7.67c2.07-1.7,4.41-2.91,7-3.77c0.27,0.32,0.53,0.63,0.84,0.99c0.44-0.19,0.91-0.27,1.22-0.54
			c0.51-0.44,1.05-0.67,1.69-0.74c0.69-0.07,1.38-0.1,2.05-0.24c0.71-0.14,1.08,0.54,1.66,0.6c1.02-0.82,1.02-0.82,1.89,0.33
			c1.57,0.14,3.18,0.29,4.78,0.44c3.04,0.29,6.03,0.77,8.73,2.32c0.62,0.36,1.38,0.53,2.09,0.67c1.29,0.26,2.29,0.93,3.09,1.93
			c0.46,0.58,0.88,1.2,1.34,1.78c0.23,0.29,0.47,0.61,0.78,0.78c0.8,0.45,1.29,1.16,1.75,1.9c0.79,1.27,1.54,2.55,2.32,3.82
			c0.97,1.59,1.84,3.21,2.23,5.07c0.31,1.46,0.76,2.89,1.1,4.35c0.45,1.94,0.74,3.95,0.53,5.92c-0.26,2.42-0.84,4.81-1.31,7.21
			c-0.07,0.36-0.26,0.71-0.4,1.06c-0.28,0.7-0.54,1.4-0.87,2.08c-0.49,1.01-0.61,2.19-1.43,3.06c-0.56,0.59-1.07,1.24-1.55,1.91
			c-0.75,1.04-1.65,1.91-2.69,2.65c-0.57,0.4-1.24,0.76-1.61,1.31c-0.84,1.25-2.06,1.8-3.37,2.3c-0.41,0.16-0.78,0.42-1.18,0.59
			c-1.44,0.62-2.88,1.25-4.33,1.82c-0.4,0.16-0.87,0.19-1.3,0.16c-1.17-0.09-2.27-0.02-3.03,1.08c-0.07,0.1-0.19,0.16-0.31,0.21
			c-1.7,0.73-3.44,1.15-5.3,0.8c-0.67-0.13-1.36-0.11-2.04-0.21c-1.15-0.17-2.38-0.04-3.31-1.03c-0.3-0.32-0.9-0.4-1.38-0.53
			c-0.36-0.1-0.75-0.04-1.12-0.13c-1.61-0.39-3.37-0.5-4.26-2.24c-0.92-0.49-1.51-1.49-2.57-1.75c-1.47-0.35-2.55-1.28-3.55-2.31
			c-1.43-1.46-3.16-2.6-4.46-4.2c-0.08-0.09-0.19-0.17-0.3-0.22c-1.39-0.71-2.05-1.94-2.37-3.4c-0.22-0.98-0.55-1.91-1.04-2.79
			c-0.23-0.41-0.3-0.95-0.33-1.43c-0.09-1.6,0.07-3.22-0.39-4.8c-0.18-0.63,0.02-1.38-0.11-2.04c-0.3-1.54,0.07-2.98,0.66-4.37
			c0.28-0.66,0.42-1.28,0.4-2c-0.02-0.86,0.03-1.76,0.24-2.6c0.42-1.7,1.07-3.34,1.44-5.05c0.41-1.92,1.34-3.5,2.65-4.92
			c1.41-1.54,2.77-3.11,4.17-4.66C11.01,8.42,11.42,8.03,11.86,7.67z"/>
		
			<linearGradient id="SVGID_2_" gradientUnits="userSpaceOnUse" x1="116.2437" y1="-380.3277" x2="129.3056" y2="-380.3277" gradientTransform="matrix(0.7071 0.7071 -0.7071 0.7071 -313.2229 188.7095)">
			<stop  offset="0" style="stop-color:#0068FF"/>
			<stop  offset="0.6082" style="stop-color:#0066FF"/>
			<stop  offset="0.9662" style="stop-color:#005DFF"/>
			<stop  offset="1" style="stop-color:#005CFF"/>
		</linearGradient>
		<path class="st2" d="M44.88,7.49c-0.54-0.44-1.12-0.73-1.81-0.89c-0.53-0.12-1.17-0.26-1.5-0.63c-0.64-0.7-1.44-1-2.27-1.12
			c-0.61-0.08-0.99-0.45-1.48-0.67c-0.51-0.24-1.15,0.23-1.6-0.27c-0.03-0.03,0-0.12,0.02-0.27c1.64,0.26,3.29,0.49,4.92,0.81
			c0.45,0.09,0.84,0.48,1.26,0.73c0.42,0.24,0.89,0.73,1.26,0.67c1.24-0.21,1.96,0.54,2.8,1.15c0.88,0.63,1.4,1.55,2.04,2.38
			c0.07,0.09-0.03,0.32-0.04,0.49C48.3,9.85,48.07,9.9,47.97,9.8C47.05,8.88,45.88,8.3,44.88,7.49z"/>
		
			<linearGradient id="SVGID_3_" gradientUnits="userSpaceOnUse" x1="130.5399" y1="-382.6383" x2="133.3626" y2="-382.6383" gradientTransform="matrix(0.7071 0.7071 -0.7071 0.7071 -313.2229 188.7095)">
			<stop  offset="0" style="stop-color:#0068FF"/>
			<stop  offset="0.6082" style="stop-color:#0066FF"/>
			<stop  offset="0.9662" style="stop-color:#005DFF"/>
			<stop  offset="1" style="stop-color:#005CFF"/>
		</linearGradient>
		<path class="st3" d="M49.96,10.14c0.62,0.5,1.42,1.34,1.5,1.73c0.05,0.25-0.08,0.55-0.14,0.91
			C50.22,11.78,49.87,11.08,49.96,10.14z"/>
		
			<linearGradient id="SVGID_4_" gradientUnits="userSpaceOnUse" x1="116.9334" y1="-379.6319" x2="117.3795" y2="-379.6319" gradientTransform="matrix(0.7071 0.7071 -0.7071 0.7071 -313.2229 188.7095)">
			<stop  offset="0" style="stop-color:#0068FF"/>
			<stop  offset="0.6082" style="stop-color:#0066FF"/>
			<stop  offset="0.9662" style="stop-color:#005DFF"/>
			<stop  offset="1" style="stop-color:#005CFF"/>
		</linearGradient>
		<path class="st4" d="M37.96,3.26c-0.06-0.02-0.07-0.17-0.11-0.26c0.11-0.01,0.23-0.06,0.33-0.03c0.05,0.01,0.06,0.15,0.09,0.24
			C38.17,3.24,38.04,3.3,37.96,3.26z"/>
		
			<linearGradient id="SVGID_5_" gradientUnits="userSpaceOnUse" x1="135.2026" y1="-382.2799" x2="135.519" y2="-382.2799" gradientTransform="matrix(0.7071 0.7071 -0.7071 0.7071 -313.2229 188.7095)">
			<stop  offset="0" style="stop-color:#0068FF"/>
			<stop  offset="0.6082" style="stop-color:#0066FF"/>
			<stop  offset="0.9662" style="stop-color:#005DFF"/>
			<stop  offset="1" style="stop-color:#005CFF"/>
		</linearGradient>
		<path class="st5" d="M52.9,13.99c0.03,0,0.1,0.1,0.09,0.12c-0.05,0.08-0.13,0.15-0.19,0.23c-0.06-0.09-0.13-0.17-0.19-0.26
			C52.71,14.05,52.8,14,52.9,13.99z"/>
		
			<linearGradient id="SVGID_6_" gradientUnits="userSpaceOnUse" x1="136.6286" y1="-381.0722" x2="136.8283" y2="-381.0722" gradientTransform="matrix(0.7071 0.7071 -0.7071 0.7071 -313.2229 188.7095)">
			<stop  offset="0" style="stop-color:#0068FF"/>
			<stop  offset="0.6082" style="stop-color:#0066FF"/>
			<stop  offset="0.9662" style="stop-color:#005DFF"/>
			<stop  offset="1" style="stop-color:#005CFF"/>
		</linearGradient>
		<path class="st6" d="M52.87,15.84c0.05,0.02,0.1,0.04,0.15,0.06c-0.02,0.04-0.04,0.09-0.06,0.13c-0.05-0.02-0.11-0.03-0.14-0.07
			C52.81,15.95,52.85,15.88,52.87,15.84z"/>
		
			<linearGradient id="SVGID_7_" gradientUnits="userSpaceOnUse" x1="105.5653" y1="-371.5235" x2="107.7619" y2="-371.5235" gradientTransform="matrix(0.7071 0.7071 -0.7071 0.7071 -313.2229 188.7095)">
			<stop  offset="0" style="stop-color:#0068FF"/>
			<stop  offset="0.6082" style="stop-color:#0066FF"/>
			<stop  offset="0.9662" style="stop-color:#005DFF"/>
			<stop  offset="1" style="stop-color:#005CFF"/>
		</linearGradient>
		<path class="st7" d="M24.72,2.68c-0.22-0.32-0.4-0.57-0.55-0.83c-0.09-0.16-0.15-0.35-0.19-0.53c-0.11-0.44,0.23-0.9,0.69-0.95
			c0.53-0.06,0.96,0.19,1.22,0.72c0.22,0.44,0.16,0.84-0.27,1.18C25.39,2.45,25.07,2.52,24.72,2.68z"/>
	</g>
	<g>
		<g>
			<path class="st8" d="M42.59,16.92H16.65c-1.28,0-2.32,1.04-2.32,2.32v18.83v1.62c0,1.28,1.04,2.31,2.32,2.31h9.55v2.46h-0.65
				c-1.42,0-2.57,1.16-2.57,2.57c0,0.26,0.21,0.47,0.47,0.47h12.35c0.26,0,0.47-0.21,0.47-0.47c0-1.42-1.15-2.57-2.57-2.57h-0.65
				v-2.46h9.55c1.28,0,2.32-1.03,2.32-2.31v-1.62V19.25C44.9,17.97,43.87,16.92,42.59,16.92z M35.26,46.59h-11.3
				c0.21-0.69,0.84-1.18,1.58-1.18h1.11h5.91h1.11C34.43,45.41,35.06,45.9,35.26,46.59z M32.11,44.47h-4.98v-2.46h4.98V44.47z
				 M41.01,38.54h2.97v1.16c0,0.76-0.63,1.39-1.4,1.39H32.57h-5.91H16.65c-0.77,0-1.4-0.63-1.4-1.39v-1.16h16.61h3.54l-1-0.94H15.25
				V19.25c0-0.77,0.63-1.39,1.4-1.39h25.94c0.77,0,1.4,0.62,1.4,1.39v18.36h-3.01L41.01,38.54z"/>
		</g>
		<g>
			<g>
				<g>
					<path class="st8" d="M40.11,37.01l-2.91-2.91c-0.1-0.1-0.26-0.1-0.37,0l-0.31,0.32l-2.32-2.32c1.82-2.66,1.49-6.32-0.81-8.62
						c-2.64-2.65-6.94-2.65-9.59,0c-2.65,2.65-2.65,6.94,0,9.59c1.3,1.3,3.05,1.97,4.81,1.97c1.33,0,2.67-0.39,3.81-1.16l2.32,2.31
						l-0.32,0.32c-0.1,0.1-0.1,0.26,0,0.37l2.91,2.91c0.35,0.35,0.82,0.53,1.28,0.53c0.47,0,0.93-0.18,1.28-0.53l0.2-0.21
						C40.82,38.87,40.82,37.72,40.11,37.01z M32.63,33.34c-0.09-0.09-0.24-0.11-0.34-0.03c-2.46,1.82-5.95,1.54-8.12-0.62
						c-2.44-2.44-2.44-6.41,0-8.84c1.22-1.23,2.82-1.84,4.43-1.84c1.6,0,3.2,0.61,4.42,1.84c2.17,2.16,2.44,5.66,0.62,8.12
						c-0.08,0.1-0.07,0.25,0.02,0.33l2.21,2.21l-1.03,1.04L32.63,33.34z M35.29,36.37l1.4-1.4l0.32-0.32l0.83,0.84l-2.04,2.03
						l-0.83-0.83L35.29,36.37z M39.74,39.21l-0.21,0.2c-0.5,0.5-1.33,0.5-1.83,0l-1.52-1.52l2.03-2.04l1.53,1.53
						C40.24,37.89,40.24,38.71,39.74,39.21z"/>
				</g>
				<g>
					<path class="st8" d="M28.59,23.32c-1.32,0-2.57,0.51-3.5,1.44c-0.93,0.94-1.45,2.18-1.45,3.51c0,1.32,0.52,2.56,1.45,3.5
						c0.93,0.93,2.18,1.45,3.5,1.45c1.32,0,2.56-0.52,3.5-1.45c0.93-0.94,1.45-2.18,1.45-3.5c0-1.33-0.52-2.57-1.45-3.51
						C31.16,23.83,29.91,23.32,28.59,23.32z M31.72,31.4c-0.84,0.84-1.95,1.3-3.13,1.3c-1.18,0-2.3-0.46-3.13-1.3
						c-0.84-0.84-1.3-1.95-1.3-3.13c0-1.19,0.46-2.3,1.3-3.13c0.83-0.84,1.95-1.29,3.13-1.29c1.18,0,2.29,0.46,3.13,1.29
						c0.83,0.84,1.3,1.95,1.3,3.13C33.02,29.45,32.56,30.56,31.72,31.4z"/>
				</g>
				<g>
					<path class="st8" d="M33.23,22.01h2.17c0.14,0,0.26-0.12,0.26-0.26c0-0.14-0.12-0.26-0.26-0.26h-2.17
						c-0.15,0-0.26,0.12-0.26,0.26C32.96,21.89,33.08,22.01,33.23,22.01z"/>
				</g>
				<g>
					<path class="st8" d="M37.5,23.32h-2.53c-0.1,0-0.18,0.12-0.18,0.26c0,0.15,0.08,0.26,0.18,0.26h2.53c0.1,0,0.18-0.12,0.18-0.26
						C37.68,23.44,37.6,23.32,37.5,23.32z"/>
				</g>
				<g>
					<path class="st8" d="M38.8,25.15h-2.7c-0.14,0-0.26,0.12-0.26,0.26c0,0.15,0.12,0.26,0.26,0.26h2.7c0.15,0,0.26-0.12,0.26-0.26
						C39.06,25.27,38.94,25.15,38.8,25.15z"/>
				</g>
				<g>
					<path class="st8" d="M38.8,26.98h-2.17c-0.15,0-0.26,0.12-0.26,0.26c0,0.15,0.12,0.26,0.26,0.26h2.17
						c0.15,0,0.26-0.12,0.26-0.26C39.06,27.09,38.94,26.98,38.8,26.98z"/>
				</g>
				<g>
					<path class="st8" d="M38.05,28.81h-1.51c-0.1,0-0.18,0.11-0.18,0.26c0,0.15,0.08,0.26,0.18,0.26h1.51
						c0.1,0,0.18-0.12,0.18-0.26C38.23,28.92,38.15,28.81,38.05,28.81z"/>
				</g>
				<g>
					<path class="st8" d="M22.07,22.01h2.02c0.15,0,0.26-0.12,0.26-0.26c0-0.14-0.12-0.26-0.26-0.26h-2.02
						c-0.14,0-0.26,0.12-0.26,0.26C21.81,21.89,21.93,22.01,22.07,22.01z"/>
				</g>
				<g>
					<path class="st8" d="M22.07,23.84h0.46c0.14,0,0.26-0.12,0.26-0.26c0-0.14-0.12-0.26-0.26-0.26h-0.46
						c-0.14,0-0.26,0.12-0.26,0.26C21.81,23.73,21.93,23.84,22.07,23.84z"/>
				</g>
				<path class="st8" d="M31.85,31.05L31.85,31.05c-0.02-0.13-0.05-0.26-0.08-0.39c0-0.02-0.01-0.05-0.01-0.07
					c-0.03-0.11-0.07-0.23-0.12-0.35c-0.01-0.03-0.02-0.05-0.03-0.08c-0.05-0.11-0.1-0.22-0.16-0.32c-0.01-0.04-0.03-0.07-0.05-0.09
					c-0.06-0.11-0.12-0.2-0.19-0.3c-0.02-0.03-0.04-0.06-0.06-0.08c-0.06-0.08-0.12-0.17-0.19-0.25c-0.03-0.03-0.05-0.06-0.08-0.09
					c-0.07-0.07-0.14-0.15-0.22-0.22c-0.03-0.03-0.06-0.06-0.09-0.08c-0.08-0.07-0.17-0.14-0.27-0.2c-0.03-0.03-0.07-0.05-0.1-0.07
					c0,0-0.01,0-0.01-0.01c0.24-0.35,0.38-0.78,0.38-1.25c0-1.12-0.82-1.93-1.96-1.93c-1.13,0-1.95,0.81-1.95,1.93
					c0,0.46,0.14,0.9,0.38,1.25c-0.06,0.04-0.12,0.08-0.18,0.12c-0.03,0.02-0.05,0.04-0.07,0.06c-0.09,0.07-0.18,0.15-0.27,0.23
					c-0.02,0.02-0.03,0.04-0.05,0.06c-0.08,0.07-0.15,0.16-0.22,0.24c-0.01,0.01-0.03,0.03-0.04,0.05
					c-0.08,0.09-0.15,0.19-0.21,0.29c-0.02,0.03-0.04,0.06-0.05,0.08c-0.06,0.1-0.12,0.2-0.18,0.3c-0.01,0.02-0.02,0.05-0.03,0.07
					c-0.05,0.09-0.09,0.19-0.13,0.29c-0.01,0.03-0.02,0.05-0.03,0.07c-0.04,0.11-0.08,0.22-0.11,0.33
					c-0.01,0.03-0.01,0.06-0.02,0.08c-0.03,0.12-0.05,0.23-0.07,0.35c0,0,0,0.01,0,0.01l-0.26,0.63c0.11,0.1,0.22,0.21,0.35,0.31
					l0,0c0.92,0.76,2.04,1.14,3.17,1.14c1.13,0,2.25-0.38,3.17-1.14l0,0c0.13-0.1,0.24-0.21,0.35-0.31L31.85,31.05z M28.29,32.5
					c-0.84-0.06-1.66-0.36-2.35-0.9c0-0.02,0-0.05,0-0.07c0-0.12,0.01-0.25,0.03-0.38c0-0.01,0-0.02,0-0.03
					c0.02-0.13,0.05-0.25,0.08-0.37c0-0.02,0.01-0.03,0.01-0.05c0.03-0.12,0.08-0.23,0.12-0.35c0.01-0.01,0.01-0.03,0.02-0.05
					c0.05-0.11,0.11-0.22,0.17-0.32c0.01-0.03,0.02-0.04,0.03-0.06c0.07-0.11,0.13-0.21,0.21-0.3c0.01-0.02,0.03-0.03,0.04-0.05
					c0.07-0.1,0.16-0.18,0.24-0.27c0.01-0.02,0.03-0.03,0.04-0.05c0.09-0.08,0.18-0.16,0.29-0.23c0.01-0.01,0.03-0.02,0.04-0.03
					c0.05-0.04,0.12-0.07,0.18-0.11c0.32,0.26,0.72,0.41,1.14,0.41c0.43,0,0.83-0.15,1.14-0.41c0.01,0.01,0.01,0.01,0.02,0.01
					c0.06,0.04,0.12,0.07,0.17,0.1c0.06,0.05,0.12,0.09,0.18,0.14c0.05,0.05,0.11,0.08,0.15,0.13c0.05,0.06,0.11,0.11,0.16,0.17
					c0.05,0.05,0.09,0.09,0.13,0.15c0.05,0.06,0.09,0.13,0.13,0.18c0.04,0.06,0.08,0.11,0.11,0.17c0.04,0.07,0.08,0.14,0.12,0.21
					c0.03,0.05,0.06,0.11,0.09,0.17c0.03,0.07,0.06,0.16,0.08,0.23c0.02,0.05,0.05,0.11,0.06,0.17c0.02,0.09,0.04,0.19,0.06,0.27
					c0.01,0.05,0.02,0.09,0.03,0.14c0.02,0.14,0.03,0.28,0.03,0.41c0,0.03,0,0.05,0,0.07c-0.69,0.54-1.51,0.84-2.35,0.9
					 M28.59,28.68c-0.73,0-1.33-0.67-1.33-1.5c0-0.77,0.54-1.31,1.33-1.31c0.78,0,1.33,0.54,1.33,1.31
					C29.93,28,29.33,28.68,28.59,28.68z"/>
			</g>
		</g>
	</g>
</g>
</svg>
